<?xml version="1.0" encoding="UTF-8" standalone="no"?>
<!-- Created with Inkscape (http://www.inkscape.org/) -->

<svg
   xmlns:dc="http://purl.org/dc/elements/1.1/"
   xmlns:cc="http://creativecommons.org/ns#"
   xmlns:rdf="http://www.w3.org/1999/02/22-rdf-syntax-ns#"
   xmlns:svg="http://www.w3.org/2000/svg"
   xmlns="http://www.w3.org/2000/svg"
   xmlns:sodipodi="http://sodipodi.sourceforge.net/DTD/sodipodi-0.dtd"
   xmlns:inkscape="http://www.inkscape.org/namespaces/inkscape"
   width="184.09966mm"
   height="73.40686mm"
   viewBox="0 0 184.09966 73.40686"
   version="1.1"
   id="svg8"
   inkscape:version="0.92.1 r15371"
   sodipodi:docname="FX13_3d.svg">
  <defs
     id="defs2" />
  <sodipodi:namedview
     id="base"
     pagecolor="#ffffff"
     bordercolor="#666666"
     borderopacity="1.0"
     inkscape:pageopacity="0.0"
     inkscape:pageshadow="2"
     inkscape:zoom="1.1592141"
     inkscape:cx="324.34868"
     inkscape:cy="163.50648"
     inkscape:document-units="mm"
     inkscape:current-layer="layer1"
     showgrid="false"
     inkscape:snap-global="false"
     fit-margin-top="0"
     fit-margin-left="0"
     fit-margin-right="0"
     fit-margin-bottom="0"
     inkscape:window-width="1920"
     inkscape:window-height="1016"
     inkscape:window-x="0"
     inkscape:window-y="27"
     inkscape:window-maximized="1" />
  <metadata
     id="metadata5">
    <rdf:RDF>
      <cc:Work
         rdf:about="">
        <dc:format>image/svg+xml</dc:format>
        <dc:type
           rdf:resource="http://purl.org/dc/dcmitype/StillImage" />
        <dc:title />
      </cc:Work>
    </rdf:RDF>
  </metadata>
  <g
     inkscape:label="Layer 1"
     inkscape:groupmode="layer"
     id="layer1"
     transform="translate(-18.560158,-95.624938)">
    <path
       style="opacity:1;fill:#0000ff;fill-opacity:1;stroke:none;stroke-width:1.46500003;stroke-linecap:round;stroke-linejoin:round;stroke-miterlimit:4;stroke-dasharray:none;stroke-opacity:1"
       d="m 32.228573,110.60575 20.238688,5.15536 c 4.344839,1.10675 8.390498,5.1533 8.187994,9.07171 l -0.493927,9.5574 c -0.202501,3.91841 -3.157143,6.20099 -7.497352,5.07621 l -19.270328,-4.99391 c -4.340212,-1.1248 -7.996687,-5.15273 -8.187995,-9.0717 l -0.47443,-9.7188 c -0.191308,-3.91897 3.15251,-6.18297 7.497352,-5.07622 z"
       id="rect40-7-5-6"
       inkscape:connector-curvature="0"
       sodipodi:nodetypes="sssssssss" />
    <path
       style="opacity:1;fill:#0000ff;fill-opacity:1;stroke:none;stroke-width:1.46500003;stroke-linecap:round;stroke-linejoin:round;stroke-miterlimit:4;stroke-dasharray:none;stroke-opacity:1"
       d="m 32.228573,110.60575 20.238688,5.15536 c 4.344839,1.10675 8.390498,5.1533 8.187994,9.07171 l -0.493927,9.5574 c -0.202501,3.91841 -3.157143,6.20099 -7.497352,5.07621 l -19.270328,-4.99391 c -4.340212,-1.1248 -7.996687,-5.15273 -8.187995,-9.0717 l -0.47443,-9.7188 c -0.191308,-3.91897 3.15251,-6.18297 7.497352,-5.07622 z"
       id="rect40-7-5-3"
       inkscape:connector-curvature="0"
       sodipodi:nodetypes="sssssssss" />
    <path
       style="fill:#cccccc;stroke:none;stroke-width:0.26458332px;stroke-linecap:butt;stroke-linejoin:miter;stroke-opacity:1"
       d="m 18.560158,102.8446 c 0,0 89.928612,-14.484675 100.709032,-2.42089 6.7785,7.58545 4.27336,21.60723 -5.81014,17.10762 -5.00673,-2.23418 0.32279,-12.42723 -6.93988,-13.87977 -24.370299,-2.0981 -84.569765,33.73107 -84.569765,33.73107 z"
       id="path23"
       inkscape:connector-curvature="0"
       sodipodi:nodetypes="cssccc" />
    <path
       style="fill:#e6e6e6;stroke:none;stroke-width:0.26458332px;stroke-linecap:butt;stroke-linejoin:miter;stroke-opacity:1"
       d="m 18.560158,102.8446 120.721732,24.3703 c 0,0 -1.77532,42.76905 -3.06647,41.8007 -1.29114,-0.96836 -57.939968,-15.81648 -58.585541,-15.81648 -0.64557,0 1.291143,-16.94624 -5.97153,-17.26902 -7.262669,-0.32279 -5.325956,15.17091 -5.971529,14.20256 -0.64557,-0.96836 -43.737415,-12.75003 -43.737415,-12.75003 0,0 -3.389247,-34.21524 -3.389247,-34.53803 z"
       id="path21"
       inkscape:connector-curvature="0" />
    <path
       style="fill:#cccccc;stroke:none;stroke-width:0.26458332px;stroke-linecap:butt;stroke-linejoin:miter;stroke-opacity:1"
       d="m 138.38699,127.2149 c 0,0 50.51368,-29.155265 59.76429,-20.12524 5.8166,5.67789 6.52837,19.8842 -0.97044,18.01236 -3.72336,-0.92942 -1.89791,-12.12248 -6.99482,-11.73768 -16.63084,3.98135 -53.78253,55.36036 -53.78253,55.36036 z"
       id="path23-3"
       inkscape:connector-curvature="0"
       sodipodi:nodetypes="cssccc" />
    <path
       transform="matrix(0.96905495,0.2468451,0.04875773,0.99881063,0,0)"
       style="opacity:1;fill:#d40000;fill-opacity:1;stroke:none;stroke-width:1.4984386;stroke-linecap:round;stroke-linejoin:round;stroke-miterlimit:4;stroke-dasharray:none;stroke-opacity:1"
       d="m 89.864385,103.68846 h 22.551145 c 4.84128,0 9.23148,3.29225 8.73878,7.64741 l -1.14757,10.14391 c -0.4927,4.35517 -3.87392,7.56498 -8.73878,7.64742 l -21.403575,0.36273 c -4.864862,0.0825 -8.738775,-3.41075 -8.738775,-7.64742 v -10.50664 c 0,-4.23666 3.897494,-7.64741 8.738775,-7.64741 z"
       id="rect40-7"
       inkscape:connector-curvature="0"
       sodipodi:nodetypes="sssssssss" />
    <path
       style="opacity:1;fill:#0000ff;fill-opacity:1;stroke:none;stroke-width:1.4984386;stroke-linecap:round;stroke-linejoin:round;stroke-miterlimit:4;stroke-dasharray:none;stroke-opacity:1"
       d="m 28.034614,103.80901 20.884973,0 c 4.483586,0 8.504591,3.05762 8.093116,7.08239 l -1.003629,9.81682 c -0.411474,4.02477 -3.615289,7.10185 -8.093116,7.08238 l -19.881344,-0.0864 c -4.477828,-0.0195 -8.093116,-3.15874 -8.093116,-7.08238 v -9.73037 c 0,-3.92364 3.609529,-7.08239 8.093116,-7.08239 z"
       id="rect40-7-5"
       inkscape:connector-curvature="0"
       sodipodi:nodetypes="sssssssss"
       transform="matrix(0.96905495,0.2468451,0.04875773,0.99881063,0,0)" />
  </g>
</svg>
